<?xml version="1.0" encoding="iso-8859-1"?>
<!-- Uploaded to: SVG Repo, www.svgrepo.com, Generator: SVG Repo Mixer Tools -->
<svg fill="#000000" height="800px" width="800px" version="1.1" id="Layer_1" xmlns="http://www.w3.org/2000/svg" xmlns:xlink="http://www.w3.org/1999/xlink" 
	 viewBox="0 0 512 512" xml:space="preserve">
<g>
	<g>
		<g>
			<circle cx="382.364" cy="428.364" r="8.327"/>
			<circle cx="224.815" cy="428.364" r="8.327"/>
			<path d="M506.035,97.295c-5.105-6.225-12.998-9.795-21.653-9.795H131.104L97.758,44.394l-0.014,0.011
				c-4.956-6.392-12.702-10.518-21.399-10.518H27.072C12.144,33.888,0,46.032,0,60.958C0,75.886,12.144,88.03,27.072,88.03h35.991
				l35.367,45.719l38.923,195.129h-0.438c-17.972,0-32.595,14.621-32.595,32.595s14.622,32.595,32.595,32.595h51.913
				c-8.516,8.931-13.76,21.009-13.76,34.294c0,27.433,22.318,49.751,49.751,49.751c27.432,0,49.75-22.319,49.75-49.751
				c0-13.286-5.246-25.362-13.759-34.294h85.564c-8.516,8.931-13.76,21.009-13.76,34.294c0,27.433,22.319,49.751,49.752,49.751
				c27.432,0,49.749-22.319,49.749-49.751c0-13.286-5.246-25.362-13.759-34.294h22.51c4.405,0,7.974-3.57,7.974-7.974
				c0-4.404-3.569-7.974-7.974-7.974h-303.95c-9.18,0-16.648-7.469-16.648-16.648c0-9.179,7.468-16.648,16.648-16.648h7.228
				c6.946,9.315,18.165,15.517,29.898,15.517h259.101c17.054,0,33.025-13.1,36.363-29.825l41.903-210.074
				C513.097,111.956,511.141,103.518,506.035,97.295z M382.362,394.561c18.638,0,33.802,15.164,33.802,33.803
				c0,18.64-15.164,33.804-33.802,33.804c-18.64,0-33.805-15.165-33.805-33.804C348.559,409.725,363.722,394.561,382.362,394.561z
				 M224.816,394.561c18.639,0,33.803,15.164,33.803,33.803c0,18.64-15.164,33.804-33.803,33.804
				c-18.639,0-33.804-15.165-33.804-33.804S206.177,394.561,224.816,394.561z M27.072,72.083c-6.134,0-11.125-4.99-11.125-11.125
				s4.99-11.124,11.125-11.124h49.275c6.134,0,11.125,4.99,11.125,11.124c0,6.134-4.99,11.125-11.125,11.125H27.072z
				 M101.145,97.292c-1.979,2.412-3.478,5.159-4.482,8.111l-14.018-18.12c7.616-1.823,13.992-6.87,17.595-13.617l12.136,15.688
				C107.965,91.002,104.09,93.702,101.145,97.292z M453.862,327.398c-1.838,9.213-11.328,16.998-20.723,16.998H174.039
				c-9.395,0-18.885-7.783-20.721-16.998l-12.462-62.476h325.468L453.862,327.398z M469.505,248.976h-331.83l-7.773-38.964h347.375
				L469.505,248.976z M495.765,117.324l-15.307,76.74H126.721l-15.307-76.74c-0.767-3.842-0.034-7.364,2.06-9.918
				c2.094-2.554,5.405-3.96,9.322-3.96h361.585c3.918,0,7.229,1.406,9.324,3.961C495.8,109.961,496.531,113.483,495.765,117.324z"/>
		</g>
	</g>
</g>
</svg>